<svg width="384" height="485" viewBox="0 0 384 485" fill="none" xmlns="http://www.w3.org/2000/svg">
<path d="M368.387 4.68759C370.135 0.833043 374.619 -1.01382 378.602 0.554778C382.712 2.17405 384.732 6.81908 383.113 10.9298L198.506 479.631L198.346 480.01C196.597 483.864 192.113 485.711 188.131 484.143C184.02 482.523 182 477.878 183.619 473.767L368.226 5.0665L368.387 4.68759Z" fill="#9F9FA9"/>
<path d="M5.09001 0.546247C9.07679 -1.01065 13.5548 0.849153 15.2922 4.70836L15.4523 5.08824L198.515 473.788L198.654 474.176C199.993 478.191 197.96 482.593 193.974 484.151C189.987 485.708 185.508 483.849 183.771 479.99L183.611 479.61L0.548013 10.9086L0.408365 10.5218C-0.930004 6.50653 1.10304 2.10346 5.09001 0.546247Z" fill="#9F9FA9"/>
<path d="M3.37541 1.47308C6.86761 -1.00135 11.662 -0.279406 14.2807 3.04535L14.5278 3.37543L346.668 472.076L346.898 472.417C349.167 475.99 348.258 480.753 344.766 483.228C341.274 485.703 336.479 484.982 333.86 481.657L333.614 481.327L1.47307 12.6254L1.24358 12.2836C-1.02534 8.71098 -0.116742 3.94777 3.37541 1.47308Z" fill="white"/>
<path d="M369.387 3.04554C372.006 -0.279592 376.801 -1.00134 380.294 1.47327C383.786 3.94794 384.694 8.71117 382.425 12.2838L382.196 12.6256L50.0552 481.327L49.8082 481.657C47.1893 484.981 42.395 485.703 38.9029 483.228C35.298 480.674 34.446 475.681 37.0005 472.076L369.141 3.37562L369.387 3.04554Z" fill="white"/>
</svg>
